<?xml version="1.0" encoding="utf-8"?>
<!-- Svg Vector Icons : http://www.onlinewebfonts.com/icon -->
<!DOCTYPE svg PUBLIC "-//W3C//DTD SVG 1.1//EN" "http://www.w3.org/Graphics/SVG/1.1/DTD/svg11.dtd">
<svg version="1.1" xmlns="http://www.w3.org/2000/svg" xmlns:xlink="http://www.w3.org/1999/xlink" x="0px" y="0px" viewBox="0 0 10 10" enable-background="new 0 0 1000 1000" xml:space="preserve">
<metadata> Svg Vector Icons : http://www.onlinewebfonts.com/icon </metadata>
<g><g transform="translate(0.000000,511.000000) scale(0.100000,-0.100000)"><path d="M4511.4,4988.6c-347-35.6-964.8-171.1-964.8-209.1c2.4-26.1,1292.7-941,1330.7-938.7c19,0,332.7,223.4,698.7,496.7c465.8,346.9,651.1,499,629.7,513.3c-54.7,28.5-513.3,111.7-779.4,137.8C5148.3,5017.1,4787.1,5017.1,4511.4,4988.6z"/><path d="M5911.1,4083.2l-784.2-591.7l-4.8-135.4c-4.7-73.7,7.1-461,23.8-860.2l28.5-724.8l606-432.5c332.7-237.6,677.3-482.4,765.2-544.2l156.8-109.3l684.4,263.8c375.5,145,691.5,270.9,701,280.4c23.8,23.8,710.5,1901.1,710.5,1941.5c0,47.5-439.6,501.4-672.5,696.3c-237.6,199.6-468.1,356.5-748.5,515.7c-216.3,123.6-608.4,301.8-653.5,297C6707.2,4677.3,6343.6,4408.8,5911.1,4083.2z"/><path d="M2774.3,4473c-625-327.9-1173.9-781.8-1599.3-1318.9l-145-185.4l42.8-111.7c254.3-636.9,672.5-1680.1,674.9-1682.5c2.4-4.7,356.4-109.3,784.2-235.3l779.4-228.1l503.8,361.2c278,199.6,603.6,432.5,724.8,518l223.4,156.8l-14.3,463.4c-7.1,254.3-21.4,634.5-30.9,843.6l-14.2,380.2L3896,4016.7c-444.4,320.8-819.8,584.6-834.1,587C3047.6,4608.4,2919.3,4549,2774.3,4473z"/><path d="M8812.6,1999.2c-154.5-415.9-282.8-777.1-287.5-800.8c-9.5-35.6,137.8-164,655.9-579.8c368.3-294.7,682-537.1,696.3-541.8c19-4.8,26.1,45.1,21.4,166.3c-30.9,691.5-178.2,1321.2-449.1,1896.3c-118.8,251.9-323.2,617.8-344.6,617.8C9097.7,2757.2,8964.7,2417.4,8812.6,1999.2z"/><path d="M626.1,2291.5C393.2,1823.3,262.5,1417,172.2,894.2C122.3,606.7,79.5-23.1,110.4-23.1c23.8,0,1250,1026.6,1250,1050.3c0,19-563.2,1435.3-591.7,1485.2C759.2,2531.5,702.1,2443.6,626.1,2291.5z"/><path d="M4271.4,901.3c-377.8-273.3-691.5-508.5-696.3-520.4c-4.8-11.9,111.7-389.7,259-838.8l266.1-817.5l865-19c477.6-9.5,876.9-7.1,886.4,4.7c9.5,9.5,140.2,389.7,292.3,843.6c249.5,755.6,270.9,826.9,232.9,857.8c-71.3,61.8-1356.9,969.6-1387.8,979.1C4974.8,1395.6,4651.6,1177,4271.4,901.3z"/><path d="M7505.6,561.5L6816.5,293l-292.3-876.9c-161.6-482.4-292.3-888.7-292.3-900.6c0-28.5,560.8-1081.2,587-1107.4c11.9-7.1,446.7-54.6,969.5-102.2s988.5-97.4,1033.7-109.3c78.4-23.8,87.9-19,156.8,61.8c206.7,242.4,525.2,860.2,677.3,1316.5c95.1,285.2,218.6,848.4,206.7,936.3C9853.4-427,8294.5,834.8,8232.8,830C8211.4,830,7883.4,708.8,7505.6,561.5z"/><path d="M956.4,143.3C545.3-198.9,193.6-491.2,177-507.9c-26.1-26.1-23.8-68.9,4.7-242.4c85.5-482.4,251.9-974.3,480-1409.2L804.3-2435l451.5-14.3c247.1-9.5,712.9-16.6,1036.1-19l587-2.4l396.8,491.9c216.3,270.9,406.4,508.5,418.2,529.9c16.6,26.1-52.3,270.9-254.3,891.1c-152.1,470.5-289.9,867.3-304.2,881.6c-16.6,14.3-332.7,114.1-705.8,223.4s-689.1,202-701,206.7C1714.5,758.7,1367.5,483.1,956.4,143.3z"/><path d="M3610.8-2209.3l-425.4-525.2l299.4-922c164-508.5,299.4-933.9,299.4-948.1c0-52.3,434.9-135.5,886.4-171.1c225.8-19,408.7-19,636.9,0c385,30.9,425.4,40.4,425.4,95.1c0,23.8,171.1,444.4,377.8,936.3l377.8,895.9l-294.6,551.3c-164,304.2-304.2,558.4-313.7,565.6c-9.5,9.5-427.7,23.8-931.5,33.3l-914.9,16.6L3610.8-2209.3z"/><path d="M1122.8-2869.9c0-23.8,183-237.6,356.4-418.3c444.4-465.7,1007.6-855.5,1599.3-1107.4c128.3-54.6,237.6-95.1,240-90.3c7.1,7.1-501.4,1589.8-513.3,1599.3C2793.3-2874.7,1122.8-2860.4,1122.8-2869.9z"/><path d="M6519.4-3815.7c-185.3-439.6-330.3-805.6-323.2-812.7c7.1-7.1,164,38,351.7,99.8c712.9,235.3,1385.4,648.8,1891.6,1162l173.5,178.2l-114.1,14.2c-97.4,11.9-1599.3,156.9-1630.2,156.9C6864-3017.3,6707.2-3376.1,6519.4-3815.7z"/></g></g>
</svg>